# xmcd CD database file
#
# Track frame offsets:
#	150
#	21456
#	44583
#	61537
#	84233
#	101811
#	121788
#	143540
#	162348
#	183079
#	203911
#	213312
#	237212
#	258862
#	262159
#	294941
#	313627
#	330494
#	349265
#
# Disc length: 4798 seconds
#
# Revision: 3
# Processed by: cddbd v1.5.2PL0 Copyright (c) Steve Scherf et al.
# Submitted via: CDex 1.70beta3
#
DISCID=0c12bc13
DTITLE=King Crimson - The Condensed 21st Century Guide To King Crimson 1969-2003 (Disc2)
DYEAR=2006
DGENRE=Progressive Rock
TTITLE0=Elephant Talk
TTITLE1=Frame By Frame
TTITLE2=Matte Kudasai
TTITLE3=Discipline
TTITLE4=Heartbeat
TTITLE5=Waiting Man
TTITLE6=Neurotica
TTITLE7=Three Of A Perfect Pair
TTITLE8=Sleepless (Abridged)
TTITLE9=Vrooom
TTITLE10=Coda: Marine 475 (Abridged)
TTITLE11=Dinosaur (Single Version)
TTITLE12=Sex Sleep Eat Drink Dream
TTITLE13=The Power To Believe I
TTITLE14=Level Five
TTITLE15=Eyes Wide Open
TTITLE16=Happy With What You Have To Be Happy With (EP Version Abridged)
TTITLE17=The Power To Believe ⅁u
TTITLE18=The Power To Believe ⅁v
EXTD=YEAR: 2006
EXTT0=
EXTT1=
EXTT2=
EXTT3=
EXTT4=
EXTT5=
EXTT6=
EXTT7=
EXTT8=
EXTT9=
EXTT10=
EXTT11=
EXTT12=
EXTT13=
EXTT14=
EXTT15=
EXTT16=
EXTT17=
EXTT18=
PLAYORDER=
